<?xml version="1.0" encoding="UTF-8"?>
<svg width="26px" height="26px" viewBox="0 0 26 26" version="1.1" xmlns="http://www.w3.org/2000/svg" xmlns:xlink="http://www.w3.org/1999/xlink">
    <!-- Generator: Sketch 52.3 (67297) - http://www.bohemiancoding.com/sketch -->
    <title>Instagram_logo_2016</title>
    <desc>Created with Sketch.</desc>
    <defs>
        <radialGradient cx="26.5626266%" cy="107.702106%" fx="26.5626266%" fy="107.702106%" r="99.8425262%" gradientTransform="translate(0.265626,1.077021),scale(1.000000,0.992637),rotate(-90.000000),translate(-0.265626,-1.077021)" id="radialGradient-1">
            <stop stop-color="#FFDD55" offset="0%"></stop>
            <stop stop-color="#FFDD55" offset="10%"></stop>
            <stop stop-color="#FF543E" offset="50%"></stop>
            <stop stop-color="#C837AB" offset="100%"></stop>
        </radialGradient>
        <radialGradient cx="-16.7505274%" cy="7.20383154%" fx="-16.7505274%" fy="7.20383154%" r="44.6174043%" gradientTransform="translate(-0.167505,0.072038),scale(1.000000,0.992637),rotate(78.761861),translate(0.167505,-0.072038)" id="radialGradient-2">
            <stop stop-color="#3771C8" offset="0%"></stop>
            <stop stop-color="#3771C8" offset="12.8%"></stop>
            <stop stop-color="#6600FF" stop-opacity="0" offset="100%"></stop>
        </radialGradient>
    </defs>
    <g id="Design" stroke="none" stroke-width="1" fill="none" fill-rule="evenodd">
        <g id="Pick-Photos-—-Facebook" transform="translate(-630.000000, -136.000000)">
            <g id="Instagram_logo_2016" transform="translate(630.000000, 136.000000)">
                <path d="M12.9075115,0 C7.52054962,0 5.9450687,0.0056 5.63882443,0.0312 C4.53332824,0.1238 3.84541985,0.2992 3.09598473,0.6752 C2.51842748,0.9642 2.0629313,1.2992 1.61338931,1.7688 C0.794687023,2.6252 0.298503817,3.6788 0.118885496,4.9312 C0.0315572519,5.5392 0.00615267176,5.6632 0.000992366412,8.7688 C-0.000992366412,9.804 0.000992366412,11.1664 0.000992366412,12.9938 C0.000992366412,18.4178 0.00694656489,20.0038 0.0327480916,20.3118 C0.122061069,21.3958 0.290763359,22.0778 0.648015267,22.8238 C1.33076336,24.2518 2.63473282,25.3238 4.17091603,25.7238 C4.70282443,25.8618 5.29030534,25.9378 6.04450382,25.9738 C6.3640458,25.9878 9.62099237,25.9978 12.8799237,25.9978 C16.138855,25.9978 19.3977863,25.9938 19.7093893,25.9778 C20.5826718,25.9364 21.089771,25.8678 21.650458,25.7218 C23.1965649,25.3198 24.4767176,24.2638 25.1733588,22.8158 C25.5236641,22.0878 25.7012977,21.3798 25.7816794,20.3524 C25.799145,20.1284 25.8064885,16.557 25.8064885,12.9904 C25.8064885,9.4232 25.7985496,5.8584 25.781084,5.6344 C25.6997099,4.5904 25.5220763,3.8884 25.160458,3.1464 C24.8637405,2.539 24.5342748,2.0854 24.0559542,1.6216 C23.2023206,0.8 22.1583511,0.3 20.9143206,0.1192 C20.3115573,0.0314 20.1914809,0.0054 17.1072061,0 L12.9075115,0 Z" id="Path" fill="url(#radialGradient-1)"></path>
                <path d="M12.9075115,0 C7.52054962,0 5.9450687,0.0056 5.63882443,0.0312 C4.53332824,0.1238 3.84541985,0.2992 3.09598473,0.6752 C2.51842748,0.9642 2.0629313,1.2992 1.61338931,1.7688 C0.794687023,2.6252 0.298503817,3.6788 0.118885496,4.9312 C0.0315572519,5.5392 0.00615267176,5.6632 0.000992366412,8.7688 C-0.000992366412,9.804 0.000992366412,11.1664 0.000992366412,12.9938 C0.000992366412,18.4178 0.00694656489,20.0038 0.0327480916,20.3118 C0.122061069,21.3958 0.290763359,22.0778 0.648015267,22.8238 C1.33076336,24.2518 2.63473282,25.3238 4.17091603,25.7238 C4.70282443,25.8618 5.29030534,25.9378 6.04450382,25.9738 C6.3640458,25.9878 9.62099237,25.9978 12.8799237,25.9978 C16.138855,25.9978 19.3977863,25.9938 19.7093893,25.9778 C20.5826718,25.9364 21.089771,25.8678 21.650458,25.7218 C23.1965649,25.3198 24.4767176,24.2638 25.1733588,22.8158 C25.5236641,22.0878 25.7012977,21.3798 25.7816794,20.3524 C25.799145,20.1284 25.8064885,16.557 25.8064885,12.9904 C25.8064885,9.4232 25.7985496,5.8584 25.781084,5.6344 C25.6997099,4.5904 25.5220763,3.8884 25.160458,3.1464 C24.8637405,2.539 24.5342748,2.0854 24.0559542,1.6216 C23.2023206,0.8 22.1583511,0.3 20.9143206,0.1192 C20.3115573,0.0314 20.1914809,0.0054 17.1072061,0 L12.9075115,0 Z" id="Path" fill="url(#radialGradient-2)"></path>
                <path d="M12.9015573,3.4 C10.3142595,3.4 9.98955725,3.4114 8.97337405,3.458 C7.95917557,3.5048 7.26690076,3.6666 6.66116031,3.904 C6.03458015,4.1492 5.5030687,4.4772 4.97354198,5.011 C4.44361832,5.5446 4.11812214,6.0802 3.874,6.7114 C3.63781679,7.322 3.47705344,8.0198 3.43140458,9.0414 C3.3859542,10.0654 3.3740458,10.3928 3.3740458,13 C3.3740458,15.6072 3.38555725,15.9334 3.43160305,16.9574 C3.47824427,17.9794 3.63880916,18.677 3.87419847,19.2874 C4.11772519,19.9188 4.44322137,20.4544 4.97294656,20.988 C5.50227481,21.522 6.03378626,21.8508 6.65996947,22.096 C7.26610687,22.3334 7.95858015,22.4952 8.97258015,22.542 C9.98876336,22.5886 10.3132672,22.6 12.9003664,22.6 C15.4878626,22.6 15.8115725,22.5886 16.8277557,22.542 C17.8419542,22.4952 18.5350229,22.3334 19.1411603,22.096 C19.767542,21.8508 20.2982595,21.522 20.8275878,20.988 C21.3575115,20.4544 21.6830076,19.9188 21.9271298,19.2876 C22.1613282,18.677 22.3220916,17.9792 22.3697252,16.9576 C22.415374,15.9336 22.4272824,15.6072 22.4272824,13 C22.4272824,10.3928 22.415374,10.0656 22.3697252,9.0416 C22.3220916,8.0196 22.1613282,7.322 21.9271298,6.7116 C21.6830076,6.0802 21.3575115,5.5446 20.8275878,5.011 C20.2976641,4.477 19.7677405,4.149 19.1405649,3.904 C18.5332366,3.6666 17.8405649,3.5048 16.8263664,3.458 C15.8101832,3.4114 15.4866718,3.4 12.8985802,3.4 L12.9015573,3.4 Z M12.0469313,5.13 C12.3005802,5.1296 12.5836031,5.13 12.9015573,5.13 C15.4451908,5.13 15.7466718,5.1392 16.751145,5.1852 C17.68,5.228 18.1841221,5.3844 18.5199389,5.5158 C18.9645191,5.6898 19.2814809,5.8978 19.6147176,6.2338 C19.9481527,6.5698 20.1545649,6.8898 20.3276336,7.3378 C20.4580305,7.6758 20.6134351,8.1838 20.6557099,9.1198 C20.7013588,10.1318 20.7112824,10.4358 20.7112824,12.9978 C20.7112824,15.5598 20.7013588,15.8638 20.6557099,16.8758 C20.6132366,17.8118 20.4580305,18.3198 20.3276336,18.6578 C20.1549618,19.1058 19.9481527,19.4248 19.6147176,19.7606 C19.2812824,20.0966 18.9647176,20.3046 18.5199389,20.4786 C18.1845191,20.6106 17.68,20.7666 16.751145,20.8094 C15.7468702,20.8554 15.4451908,20.8654 12.9015573,20.8654 C10.3577252,20.8654 10.0562443,20.8554 9.05196947,20.8094 C8.1231145,20.7662 7.61899237,20.6098 7.2829771,20.4784 C6.83839695,20.3044 6.52083969,20.0964 6.18740458,19.7604 C5.85396947,19.4244 5.64755725,19.1052 5.47448855,18.657 C5.3440916,18.319 5.18868702,17.811 5.14641221,16.875 C5.10076336,15.863 5.09163359,15.559 5.09163359,12.9954 C5.09163359,10.4318 5.10076336,10.1294 5.14641221,9.1174 C5.1888855,8.1814 5.3440916,7.6734 5.47448855,7.335 C5.64716031,6.887 5.85396947,6.567 6.18740458,6.231 C6.52083969,5.895 6.83839695,5.687 7.2829771,5.5126 C7.61879389,5.3806 8.1231145,5.2246 9.05196947,5.1816 C9.93080916,5.1416 10.2713893,5.1296 12.0469313,5.1276 L12.0469313,5.13 Z M17.9868397,6.724 C17.3556947,6.724 16.8436336,7.2394 16.8436336,7.8756 C16.8436336,8.5116 17.3556947,9.0276 17.9868397,9.0276 C18.6179847,9.0276 19.1300458,8.5116 19.1300458,7.8756 C19.1300458,7.2396 18.6179847,6.7236 17.9868397,6.7236 L17.9868397,6.724 Z M12.9015573,8.07 C10.1997405,8.07 8.00919084,10.2774 8.00919084,13 C8.00919084,15.7226 10.1997405,17.929 12.9015573,17.929 C15.603374,17.929 17.7931298,15.7226 17.7931298,13 C17.7931298,10.2774 15.6031756,8.07 12.9013588,8.07 L12.9015573,8.07 Z M12.9015573,9.8 C14.6552672,9.8 16.0771298,11.2326 16.0771298,13 C16.0771298,14.7672 14.6552672,16.2 12.9015573,16.2 C11.1476489,16.2 9.72598473,14.7672 9.72598473,13 C9.72598473,11.2326 11.1476489,9.8 12.9015573,9.8 Z" id="Shape" fill="#FFFFFF" fill-rule="nonzero"></path>
            </g>
        </g>
    </g>
</svg>