<?xml version="1.0" encoding="UTF-8"?>
<svg width="25px" height="25px" viewBox="0 0 25 25" version="1.1" xmlns="http://www.w3.org/2000/svg" xmlns:xlink="http://www.w3.org/1999/xlink">
    <!-- Generator: Sketch 52.3 (67297) - http://www.bohemiancoding.com/sketch -->
    <title>F_icon</title>
    <desc>Created with Sketch.</desc>
    <g id="Design" stroke="none" stroke-width="1" fill="none" fill-rule="evenodd">
        <g id="Pick-Photos-—-Facebook" transform="translate(-469.000000, -138.000000)">
            <g id="F_icon" transform="translate(469.000000, 138.000000)">
                <path d="M23.5600386,24.9331081 C24.3181467,24.9331081 24.9329151,24.3183398 24.9329151,23.5600386 L24.9329151,1.42972973 C24.9329151,0.671332046 24.3182432,0.0567567568 23.5600386,0.0567567568 L1.42972973,0.0567567568 C0.671332046,0.0567567568 0.0567567568,0.671332046 0.0567567568,1.42972973 L0.0567567568,23.5600386 C0.0567567568,24.3182432 0.671235521,24.9331081 1.42972973,24.9331081 L23.5600386,24.9331081 Z" id="Blue_1_" fill="#3C5A99"></path>
                <path d="M17.2209459,24.9331081 L17.2209459,15.2996139 L20.4544402,15.2996139 L20.93861,11.5452703 L17.2209459,11.5452703 L17.2209459,9.14835907 C17.2209459,8.06138996 17.5227799,7.32065637 19.0814672,7.32065637 L21.0694981,7.31978764 L21.0694981,3.96187259 C20.7256757,3.91611969 19.5455598,3.81389961 18.1725869,3.81389961 C15.3062741,3.81389961 13.3439189,5.56351351 13.3439189,8.7765444 L13.3439189,11.5452703 L10.1021236,11.5452703 L10.1021236,15.2996139 L13.3439189,15.2996139 L13.3439189,24.9331081 L17.2209459,24.9331081 Z" id="f" fill="#FFFFFF"></path>
            </g>
        </g>
    </g>
</svg>